<svg preserveAspectRatio="none" overflow="visible" style="display: block;" width="140" height="148" viewBox="0 0 140 148" fill="none" xmlns="http://www.w3.org/2000/svg">
<g id="&#208;&#156;&#208;&#176;&#209;&#129;&#208;&#186;&#208;&#190;&#209;&#130;">
<g id="Vector">
<path d="M87.8298 2.52641L86.0586 2.31549L85.9425 2.35282C84.6998 2.74194 83.7022 2.84608 82.4192 3.57264C74.4692 8.07473 67.4181 17.2094 63.0582 25.0975C61.9776 27.0525 59.4911 32.3631 59.1093 34.3938L62.6539 33.9587C64.3928 33.7476 66.138 33.5943 67.8868 33.499C76.8023 33.1147 85.7161 34.2543 94.2477 36.8691C96.7624 37.6575 98.7095 38.4692 101.136 39.4013C102.512 36.6807 103.34 32.696 103.757 29.5773C104.77 22.0186 96.4546 23.6867 92.0196 25.3206C91.7839 25.4076 89.6712 26.366 89.6256 26.3645C89.615 26.1852 90.2537 23.161 90.337 22.4818C90.8929 17.9713 91.5484 12.8463 90.9701 8.33473C90.6314 5.69152 89.8964 4.06315 87.8298 2.52641Z" fill="#5AA404"/>
<path d="M131.99 94.7645C132.475 67.3316 115.891 38.3975 90.6349 34.6868C90.6349 34.6868 75.5829 31.9753 62.5708 33.0585C49.5586 34.1416 47 36.554 42.5 38.5515C38 40.5489 25.5 47.0406 15 64.5183C11.8459 71.0799 8.80994 78.8275 7.79223 86.0762C7.5972 87.3894 7.44283 88.489 7.33078 89.816C7.26266 90.623 7.17079 92.8354 7 93.497V100.575C7.08088 100.882 7.11271 101.198 7.14445 101.513C7.28207 102.881 7.37488 104.26 7.59747 105.617C8.39923 110.598 10.0134 115.404 12.3714 119.829C18.9979 132.35 31.7964 140.303 44.7574 144.123C60.439 148.745 79.3403 148.975 94.9327 144.117C99.308 142.767 103.528 140.934 107.523 138.649C118.441 132.467 126.519 122.604 130.011 110.207C131.051 106.473 131.694 102.633 131.931 98.7556C132.004 97.4083 131.966 96.1031 131.99 94.7645Z" fill="#99C91B"/>
</g>
<path id="Vector_2" d="M100.05 97.6166L100.275 97.5863L100.502 97.54L100.729 97.4772L100.954 97.3978L101.178 97.3016L101.399 97.1886L101.614 97.0589L101.824 96.9126L102.027 96.75L102.222 96.5713L102.407 96.377L102.581 96.1675L102.743 95.9436L102.893 95.7058L103.028 95.455L103.148 95.1919L103.252 94.9176L103.338 94.6331L103.407 94.3393L103.456 94.0376L103.487 93.7291L103.497 93.4151L103.486 93.0969L103.453 92.776L103.4 92.4537L103.324 92.1315L103.226 91.811L103.106 91.4937L102.963 91.181L102.799 90.8746L102.613 90.576L102.405 90.2867L102.176 90.0083L101.927 89.7423L101.658 89.4902L101.369 89.2534L101.063 89.0334L100.739 88.8314L100.4 88.6489L100.045 88.4869L99.6767 88.3467L99.296 88.2294L98.9044 88.136L98.5035 88.0673L98.0947 88.0242L97.6798 88.0074L97.2605 88.0174L96.8384 88.0549L96.4154 88.1201L95.9934 88.2132L95.5742 88.3346L95.1597 88.484L94.7517 88.6615L94.3522 88.8668L93.9631 89.0995L93.5863 89.3591L93.2235 89.645L92.8767 89.9564L92.5476 90.2924L92.2379 90.652L91.9494 91.0341L91.6836 91.4375L91.442 91.8608L91.2262 92.3024L91.0375 92.7609L90.8771 93.2346L90.7462 93.7216L90.6459 94.2202L90.5771 94.7284L90.5406 95.2441L90.5371 95.7655L90.5672 96.2902L90.6311 96.8161L90.7294 97.3411L90.8619 97.8628L91.0288 98.3791L91.2298 98.8877L91.4647 99.3862L91.7329 99.8725L92.0338 100.344L92.3667 100.799L92.7307 101.236L93.1246 101.651L93.5473 102.043L93.9974 102.41L94.4735 102.751L94.9738 103.062L95.4967 103.343L96.0403 103.592L96.6026 103.808L97.1816 103.989L97.775 104.133L98.3806 104.24L98.996 104.309L99.6188 104.339L100.246 104.329L100.877 104.279L101.506 104.189L102.133 104.057L102.755 103.885L103.368 103.673L103.971 103.42L104.56 103.128L105.133 102.797L105.688 102.428L106.221 102.022L106.731 101.58L107.214 101.103L107.67 100.594L108.094 100.053L108.487 99.4832L108.844 98.8859L109.165 98.2634L109.447 97.6178L109.689 96.9517L109.89 96.2674L110.048 95.5676L110.162 94.855L110.231 94.1324L110.254 93.4026L110.231 92.6685L110.161 91.9331L110.044 91.1993L109.88 90.4703L109.669 89.7491L109.411 89.0387L109.106 88.3421L108.757 87.6623L108.363 87.0024L107.925 86.3652L107.446 85.7536L106.926 85.1704L106.367 84.6182L105.771 84.0998L105.14 83.6174L104.476 83.1736L103.781 82.7705L103.059 82.4102L102.312 82.0946L101.542 81.8256L100.752 81.6046L99.946 81.433L99.1264 81.3122L98.2966 81.243L97.4597 81.2264L96.6192 81.2628L95.7785 81.3528L94.9408 81.4964L94.1098 81.6937L93.2888 81.9444L92.4813 82.2479L91.6907 82.6036L90.9204 83.0105L90.1736 83.4675L89.4537 83.9732L88.7639 84.5261L88.1072 85.1243L87.4866 85.7658L86.905 86.4486L86.3651 87.1701L85.8695 87.9279L85.4207 88.7191L85.0208 89.541L84.672 90.3904L84.3761 91.2642L84.1349 92.1591L83.9498 93.0716L83.8221 93.9982L83.7528 94.9353L83.7428 95.8792L83.7926 96.8261L83.9025 97.7722L84.0727 98.7137L84.303 99.6467L84.593 100.567L84.9421 101.472L85.3493 102.357L85.8136 103.218L86.3335 104.051L86.9075 104.854L87.5337 105.622L88.21 106.352L88.9341 107.041L89.7035 107.686L90.5155 108.283L91.3672 108.831L92.2554 109.325L93.1769 109.765L94.1283 110.147L95.1059 110.469L96.1061 110.731L97.125 110.929L98.1586 111.064L99.2029 111.133L100.254 111.137L101.307 111.074L102.359 110.944L103.404 110.747L104.439 110.484L105.459 110.154" stroke="black" stroke-width="4" stroke-linecap="round" stroke-linejoin="round"/>
<path id="Vector_3" d="M38.9175 97.4603L39.1426 97.4301L39.369 97.3837L39.5958 97.3209L39.8216 97.2415L40.0454 97.1453L40.2657 97.0324L40.4815 96.9027L40.6914 96.7564L40.8943 96.5937L41.0889 96.415L41.2739 96.2207L41.4482 96.0113L41.6106 95.7873L41.7599 95.5496L41.8951 95.2987L42.015 95.0357L42.1188 94.7614L42.2054 94.4768L42.2739 94.1831L42.3237 93.8814L42.3538 93.5728L42.3637 93.2588L42.3528 92.9407L42.3207 92.6197L42.2669 92.2974L42.1911 91.9753L42.0932 91.6548L41.973 91.3374L41.8307 91.0248L41.6662 90.7183L41.4799 90.4197L41.2722 90.1305L41.0433 89.8521L40.794 89.5861L40.5248 89.334L40.2366 89.0972L39.9302 88.8771L39.6066 88.6752L39.2669 88.4926L38.9122 88.3307L38.5439 88.1905L38.1632 88.0732L37.7716 87.9797L37.3707 87.911L36.9619 87.8679L36.547 87.8511L36.1276 87.8612L35.7056 87.8986L35.2826 87.9638L34.8606 88.057L34.4414 88.1783L34.0269 88.3278L33.6189 88.5053L33.2194 88.7106L32.8303 88.9433L32.4535 89.2029L32.0907 89.4887L31.7439 89.8001L31.4148 90.1361L31.1051 90.4958L30.8166 90.8779L30.5507 91.2813L30.3092 91.7045L30.0934 92.1462L29.9046 92.6047L29.7443 93.0783L29.6134 93.5654L29.5131 94.0639L29.4443 94.5721L29.4078 95.0879L29.4043 95.6092L29.4343 96.1339L29.4983 96.6599L29.5965 97.1848L29.7291 97.7066L29.896 98.2229L30.097 98.7314L30.3318 99.23L30.6001 99.7163L30.901 100.188L31.2339 100.643L31.5979 101.079L31.9918 101.495L32.4145 101.887L32.8646 102.254L33.3406 102.594L33.841 102.906L34.3639 103.187L34.9075 103.436L35.4698 103.652L36.0488 103.832L36.6422 103.977L37.2478 104.084L37.8632 104.153L38.486 104.183L39.1137 104.173L39.7437 104.123L40.3736 104.032L41.0006 103.901L41.6221 103.729L42.2354 103.517L42.838 103.264L43.4272 102.972L44.0003 102.641L44.5548 102.272L45.0881 101.865L45.5978 101.423L46.0815 100.947L46.5369 100.438L46.9617 99.8969L47.3538 99.327L47.7111 98.7297L48.0318 98.1071L48.3141 97.4616L48.5564 96.7954L48.7572 96.1112L48.9152 95.4114L49.0292 94.6988L49.0982 93.9762L49.1215 93.2463L49.0983 92.5122L49.0284 91.7768L48.9113 91.0431L48.747 90.3141L48.5357 89.5928L48.2778 88.8824L47.9736 88.1858L47.6241 87.5061L47.23 86.8461L46.7925 86.2089L46.313 85.5974L45.7929 85.0141L45.2338 84.462L44.6378 83.9435L44.0067 83.4612L43.3429 83.0173L42.6486 82.6143L41.9264 82.254L41.1789 81.9384L40.4089 81.6693L39.6194 81.4483L38.8132 81.2768L37.9936 81.1559L37.1637 81.0868L36.3269 81.0701L35.4864 81.1066L34.6456 81.1966L33.808 81.3402L32.977 81.5375L32.156 81.7881L31.3485 82.0916L30.5579 82.4473L29.7876 82.8542L29.0408 83.3112L28.3209 83.817L27.6311 84.3698L26.9744 84.968L26.3538 85.6096L25.7722 86.2923L25.2323 87.0138L24.7367 87.7716L24.2878 88.5629L23.888 89.3847L23.5392 90.2342L23.2433 91.108L23.0021 92.0028L22.817 92.9153L22.6893 93.842L22.62 94.779L22.61 95.7229L22.6598 96.6698L22.7697 97.6159L22.9399 98.5574L23.1702 99.4905L23.4602 100.411L23.8093 101.316L24.2165 102.2L24.6808 103.061L25.2007 103.895L25.7747 104.697L26.4009 105.466L27.0772 106.196L27.8013 106.885L28.5707 107.53L29.3827 108.127L30.2344 108.674L31.1226 109.169L32.0441 109.608L32.9955 109.99L33.9731 110.313L34.9733 110.575L35.9922 110.773L37.0258 110.908L38.0701 110.977L39.121 110.981L40.1743 110.917L41.2257 110.787L42.2711 110.591L43.3062 110.327L44.3266 109.998" stroke="black" stroke-width="4" stroke-linecap="round" stroke-linejoin="round"/>
<ellipse id="Ellipse 1" cx="36" cy="96" rx="23" ry="24" fill="white"/>
<ellipse id="Ellipse 2" cx="97" cy="96" rx="23" ry="24" fill="white"/>
<ellipse id="Ellipse 3" cx="61.5" cy="109.5" rx="1.5" ry="2.5" fill="black"/>
<ellipse id="Ellipse 4" cx="69.5" cy="109.5" rx="1.5" ry="2.5" fill="black"/>
<g id="&#208;&#160;&#208;&#190;&#209;&#130;">
<ellipse id="&#208;&#160;&#208;&#190;&#209;&#130;_2" cx="66.5" cy="129" rx="8.5" ry="10" fill="black"/>
<path id="Intersect" d="M67.5625 132.685C70.4965 132.685 73.4062 133.046 73.4062 134.79C73.374 134.854 73.3362 134.925 73.2969 135.003C71.746 137.43 69.2794 139 66.5 139C63.8439 139 62.2502 137.587 62.25 135.843C62.25 134.099 64.6285 132.685 67.5625 132.685Z" fill="#B40C0A"/>
</g>
<path id="Vector_4" d="M98.8053 97.1427L99.0011 97.1693L99.2024 97.182L99.4081 97.1801L99.6173 97.1631L99.829 97.1306L100.042 97.0821L100.255 97.0174L100.467 96.9362L100.677 96.8384L100.883 96.724L101.085 96.593L101.281 96.4456L101.469 96.282L101.649 96.1024L101.82 95.9075L101.98 95.6976L102.128 95.4734L102.263 95.2355L102.384 94.9848L102.489 94.7222L102.579 94.4486L102.651 94.1649L102.706 93.8725L102.742 93.5724L102.758 93.2658L102.754 92.9542L102.73 92.6388L102.685 92.3211L102.618 92.0026L102.53 91.6847L102.42 91.369L102.288 91.057L102.134 90.7503L101.959 90.4505L101.762 90.1591L101.544 89.8777L101.306 89.608L101.049 89.3513L100.772 89.1092L100.476 88.8832L100.164 88.6747L99.8348 88.485L99.4905 88.3154L99.1322 88.1673L98.7612 88.0416L98.3789 87.9395L97.9867 87.8621L97.5862 87.81L97.1791 87.7843L96.7669 87.7854L96.3514 87.8141L95.9345 87.8707L95.5178 87.9555L95.1034 88.0689L94.6929 88.2108L94.2885 88.3812L93.8919 88.58L93.505 88.8068L93.1298 89.0611L92.7681 89.3425L92.4217 89.6502L92.0925 89.9833L91.7822 90.3409L91.4925 90.7219L91.2251 91.125L90.9815 91.549L90.7633 91.9924L90.5717 92.4536L90.4082 92.9309L90.274 93.4226L90.17 93.9268L90.0974 94.4416L90.0569 94.9649L90.0494 95.4946L90.0753 96.0287L90.1352 96.5648L90.2293 97.1007L90.3579 97.6341L90.5209 98.1628L90.7183 98.6844L90.9497 99.1965L91.2147 99.6968L91.5128 100.183L91.8431 100.653L92.2049 101.104L92.597 101.535L93.0183 101.942L93.4674 102.325L93.943 102.68L94.4433 103.007L94.9667 103.302L95.5113 103.566L96.0751 103.795L96.656 103.988L97.252 104.145L97.8606 104.264L98.4795 104.344L99.1062 104.384L99.7384 104.383L100.373 104.341L101.008 104.257L101.641 104.131L102.269 103.963L102.888 103.753L103.498 103.502L104.094 103.209L104.674 102.877L105.235 102.504L105.776 102.093L106.293 101.645L106.784 101.161L107.247 100.642L107.679 100.09L108.078 99.5079L108.442 98.8965L108.769 98.2584L109.058 97.5959L109.306 96.9114L109.512 96.2074L109.675 95.4867L109.793 94.7519L109.866 94.006L109.893 93.2518L109.872 92.4924L109.804 91.7309L109.688 90.9703L109.524 90.2139L109.312 89.4646L109.053 88.7258L108.746 88.0006L108.393 87.2921L107.995 86.6034L107.553 85.9376L107.068 85.2977L106.541 84.6865L105.974 84.107L105.369 83.5618L104.729 83.0535L104.055 82.5848L103.349 82.1578L102.615 81.7749L101.855 81.438L101.072 81.1491L100.268 80.9098L99.4472 80.7217L98.6124 80.5861L97.7667 80.5041L96.9137 80.4765L96.0566 80.5042L95.1989 80.5876L94.3441 80.7268L93.4957 80.9219L92.6573 81.1728L91.8324 81.4789L91.0244 81.8395L90.2368 82.2539L89.4731 82.7207L88.7366 83.2387L88.0305 83.8062L87.358 84.4215L86.7223 85.0825L86.1262 85.787L85.5726 86.5325L85.0641 87.3164L84.6032 88.136L84.1923 88.9882L83.8335 89.8698L83.5288 90.7777L83.2799 91.7083L83.0884 92.6581L82.9555 93.6234L82.8825 94.6005L82.8701 95.5855L82.9189 96.5745L83.0294 97.5636L83.2017 98.5486L83.4355 99.5256L83.7306 100.491L84.0864 101.44L84.5018 102.368L84.9758 103.273L85.507 104.15L86.0938 104.996L86.7343 105.806L87.4263 106.577L88.1675 107.305L88.9554 107.988L89.7872 108.622L90.6599 109.204L91.5704 109.732L92.5152 110.202L93.491 110.613L94.4939 110.961L95.5202 111.246L96.5659 111.465L97.6271 111.618L98.6994 111.702L99.7788 111.717L100.861 111.663L101.941 111.538" stroke="black" stroke-width="4" stroke-linecap="round" stroke-linejoin="round"/>
<path id="Vector_5" d="M37.8053 97.1427L38.0011 97.1693L38.2024 97.182L38.4081 97.1801L38.6173 97.1631L38.829 97.1306L39.0419 97.0821L39.2549 97.0174L39.4669 96.9362L39.6767 96.8384L39.8831 96.724L40.0848 96.593L40.2806 96.4456L40.4692 96.282L40.6495 96.1024L40.8201 95.9075L40.9801 95.6976L41.1281 95.4734L41.263 95.2355L41.3838 94.9848L41.4894 94.7222L41.5789 94.4486L41.6513 94.1649L41.7058 93.8725L41.7416 93.5724L41.7579 93.2658L41.7542 92.9542L41.7299 92.6388L41.6846 92.3211L41.618 92.0026L41.5296 91.6847L41.4195 91.369L41.2876 91.057L41.1339 90.7503L40.9586 90.4505L40.762 90.1591L40.5445 89.8777L40.3065 89.608L40.0487 89.3513L39.7717 89.1092L39.4764 88.8832L39.1638 88.6747L38.8348 88.485L38.4905 88.3154L38.1322 88.1673L37.7612 88.0416L37.3789 87.9395L36.9867 87.8621L36.5862 87.81L36.1791 87.7843L35.7669 87.7854L35.3514 87.8141L34.9345 87.8707L34.5178 87.9555L34.1034 88.0689L33.6929 88.2108L33.2885 88.3812L32.8919 88.58L32.505 88.8068L32.1298 89.0611L31.7681 89.3425L31.4217 89.6502L31.0925 89.9833L30.7822 90.3409L30.4925 90.7219L30.2251 91.125L29.9815 91.549L29.7633 91.9924L29.5717 92.4536L29.4082 92.9309L29.274 93.4226L29.17 93.9268L29.0974 94.4416L29.0569 94.9649L29.0494 95.4946L29.0753 96.0287L29.1352 96.5648L29.2293 97.1007L29.3579 97.6341L29.5209 98.1628L29.7183 98.6844L29.9497 99.1965L30.2147 99.6968L30.5128 100.183L30.8431 100.653L31.2049 101.104L31.597 101.535L32.0183 101.942L32.4674 102.325L32.943 102.68L33.4433 103.007L33.9667 103.302L34.5113 103.566L35.0751 103.795L35.656 103.988L36.252 104.145L36.8606 104.264L37.4795 104.344L38.1062 104.384L38.7384 104.383L39.3733 104.341L40.0084 104.257L40.6411 104.131L41.2686 103.963L41.8883 103.753L42.4975 103.502L43.0935 103.209L43.6737 102.877L44.2354 102.504L44.776 102.093L45.2931 101.645L45.7842 101.161L46.2468 100.642L46.6788 100.09L47.0779 99.5079L47.442 98.8965L47.7693 98.2584L48.0578 97.5959L48.3059 96.9114L48.5121 96.2074L48.675 95.4867L48.7934 94.7519L48.8662 94.006L48.8927 93.2518L48.872 92.4924L48.8038 91.7309L48.6878 90.9703L48.5238 90.2139L48.3119 89.4646L48.0525 88.7258L47.7461 88.0006L47.3934 87.2921L46.9953 86.6034L46.5529 85.9376L46.0675 85.2977L45.5406 84.6865L44.9739 84.107L44.3693 83.5618L43.7289 83.0535L43.0547 82.5848L42.3493 82.1578L41.6152 81.7749L40.8551 81.438L40.0717 81.1491L39.2681 80.9098L38.4472 80.7217L37.6124 80.5861L36.7667 80.5041L35.9137 80.4765L35.0566 80.5042L34.1989 80.5876L33.3441 80.7268L32.4957 80.9219L31.6573 81.1728L30.8324 81.4789L30.0244 81.8395L29.2368 82.2539L28.4731 82.7207L27.7366 83.2387L27.0305 83.8062L26.358 84.4215L25.7223 85.0825L25.1262 85.787L24.5726 86.5325L24.0641 87.3164L23.6032 88.136L23.1923 88.9882L22.8335 89.8698L22.5288 90.7777L22.2799 91.7083L22.0884 92.6581L21.9555 93.6234L21.8825 94.6005L21.8701 95.5855L21.9189 96.5745L22.0294 97.5636L22.2017 98.5486L22.4355 99.5256L22.7306 100.491L23.0864 101.44L23.5018 102.368L23.9758 103.273L24.507 104.15L25.0938 104.996L25.7343 105.806L26.4263 106.577L27.1675 107.305L27.9554 107.988L28.7872 108.622L29.6599 109.204L30.5704 109.732L31.5152 110.202L32.491 110.613L33.4939 110.961L34.5202 111.246L35.5659 111.465L36.6271 111.618L37.6994 111.702L38.7788 111.717L39.8609 111.663L40.9413 111.538" stroke="black" stroke-width="4" stroke-linecap="round" stroke-linejoin="round"/>
</g>
</svg>
